<svg width="48" height="52" viewBox="0 0 48 52" fill="none" xmlns="http://www.w3.org/2000/svg">
<path d="M36.1461 11.4234V22.8708H33.6015V21.5907C32.6207 22.5416 31.64 23.0171 30.6592 23.0171C29.4664 23.0171 28.87 22.3344 28.87 20.969V11.4234H31.4146V20.2009C31.4146 20.7129 31.64 20.969 32.0906 20.969C32.5412 20.969 33.0448 20.6764 33.6015 20.0912V11.4234H36.1461ZM26.723 14.0932V20.0181C26.723 21.0421 26.3916 21.8223 25.729 22.3587C25.0663 22.8951 24.1651 23.1633 23.0253 23.1633C21.9385 23.1633 21.0571 22.8769 20.3812 22.3039C19.7053 21.7309 19.3673 20.9568 19.3673 19.9815V14.0566C19.3673 13.1057 19.7318 12.3804 20.4607 11.8805C21.1897 11.3807 22.0843 11.1308 23.1445 11.1308C24.1518 11.1308 25 11.399 25.6892 11.9354C26.3784 12.4718 26.723 13.1911 26.723 14.0932ZM24.1385 20.2009V13.9469C24.1385 13.7031 24.0193 13.502 23.7807 13.3435C23.5421 13.185 23.2903 13.1057 23.0253 13.1057C22.7602 13.1057 22.5216 13.185 22.3096 13.3435C22.0975 13.502 21.9915 13.7031 21.9915 13.9469V20.2009C21.9915 20.8349 22.3361 21.1518 23.0253 21.1518C23.7675 21.1518 24.1385 20.8349 24.1385 20.2009ZM16.5841 7.36377H19.4866L17.2998 13.3983C17.1938 13.6909 17.0613 14.0262 16.9022 14.4041C16.7432 14.782 16.604 15.1234 16.4847 15.4281C16.3655 15.7329 16.2661 16.0682 16.1865 16.4339V22.8708H13.3238V16.7265C13.2708 16.4339 12.8864 15.3977 12.1708 13.6178L9.90444 7.36377H12.8069L14.6359 13.5446H14.8347L16.5841 7.36377ZM40.8775 34.3913C40.8775 35.586 40.798 37.3537 40.639 39.6944C40.533 40.9135 40.0227 41.8827 39.1082 42.6019C38.1937 43.3212 37.0738 43.7052 35.7485 43.754C33.1243 43.8759 29.1881 43.9369 23.9398 43.9369C18.6649 43.9369 14.7287 43.8759 12.131 43.754C10.8057 43.7052 9.68576 43.3212 8.77128 42.6019C7.8568 41.8827 7.34654 40.9135 7.24051 39.6944C7.08147 37.3537 7.00195 35.586 7.00195 34.3913C7.00195 33.1966 7.08147 31.4289 7.24051 29.0882C7.34654 27.8691 7.8568 26.8999 8.77128 26.1806C9.68576 25.4614 10.8057 25.0773 12.131 25.0286C14.7287 24.9067 18.6649 24.8457 23.9398 24.8457C29.2146 24.8457 33.1508 24.9067 35.7485 25.0286C37.0738 25.0773 38.1937 25.4614 39.1082 26.1806C40.0227 26.8999 40.533 27.8691 40.639 29.0882C40.798 31.4289 40.8775 33.1966 40.8775 34.3913ZM38.0546 37.7194V37.0245H35.9473C35.9473 37.0733 35.9539 37.2318 35.9672 37.5C35.9804 37.7682 35.9804 37.9572 35.9672 38.0669C35.9539 38.1766 35.9208 38.3168 35.8678 38.4875C35.8148 38.6581 35.722 38.7801 35.5895 38.8532C35.4569 38.9263 35.2714 38.9629 35.0328 38.9629C34.7677 38.9629 34.5623 38.8898 34.4165 38.7435C34.2707 38.5972 34.1912 38.4509 34.178 38.3046C34.1647 38.1583 34.1581 37.9511 34.1581 37.6829V35.9274H38.0546V33.5867C38.0546 32.7333 37.8028 32.0628 37.2991 31.5752C36.7955 31.0875 36.0798 30.8437 35.1521 30.8437C34.2509 30.8437 33.5021 31.0936 32.9056 31.5934C32.3092 32.0933 32.011 32.7577 32.011 33.5867V37.7194C32.011 38.5972 32.2695 39.2982 32.7864 39.8224C33.3033 40.3466 34.0388 40.6087 34.9931 40.6087C37.0341 40.6087 38.0546 39.6456 38.0546 37.7194ZM30.4604 38.4143V33.2941C30.4604 31.758 29.7977 30.99 28.4724 30.99C27.8097 30.99 27.2001 31.2704 26.6434 31.8312V27.8081H24.5759V40.3527H26.6434V39.6212C27.2266 40.182 27.876 40.4624 28.5917 40.4624C29.8375 40.4624 30.4604 39.7797 30.4604 38.4143ZM20.5204 40.3527H22.5481V31.0997H20.5204V38.1217C20.0698 38.585 19.6589 38.8166 19.2878 38.8166C18.9432 38.8166 18.7709 38.6094 18.7709 38.1949V31.0997H16.7034V38.8898C16.7034 39.9626 17.1805 40.499 18.1348 40.499C18.93 40.499 19.7252 40.1089 20.5204 39.3287V40.3527ZM14.3178 29.6368H16.7432V27.8081H9.62612V29.6368H12.0117V40.3527H14.3178V29.6368ZM35.9473 33.477V34.501H34.1581V33.477C34.1581 32.8186 34.4629 32.4895 35.0726 32.4895C35.6557 32.4895 35.9473 32.8186 35.9473 33.477ZM28.3531 33.3672V38.2315C28.3531 38.7435 28.1146 38.9995 27.6374 38.9995C27.2663 38.9995 26.935 38.8654 26.6434 38.5972V32.8186C26.9085 32.5748 27.2001 32.4529 27.5182 32.4529C28.0748 32.4529 28.3531 32.7577 28.3531 33.3672Z" fill="#C2C0C0"/>
<path d="M44.3326 16.9095V47.5943H3.54637V3.70663H34.2546C34.2589 2.47 34.4153 1.23971 34.7194 0.0493164H3.54637C2.6659 0.0493164 1.8215 0.434639 1.19891 1.12052C0.576327 1.8064 0.226563 2.73665 0.226562 3.70663V47.5943C0.226563 48.5643 0.576327 49.4946 1.19891 50.1804C1.8215 50.8663 2.6659 51.2516 3.54637 51.2516H44.3326C45.2131 51.2516 46.0575 50.8663 46.68 50.1804C47.3026 49.4946 47.6524 48.5643 47.6524 47.5943V15.3003C46.6236 16.0135 45.505 16.5558 44.3326 16.9095Z" fill="#C2C0C0"/>
<path d="M15.8432 3.63348H44.2648V47.6675H3.61412L3.61412 14.514C2.4687 14.5093 1.32916 14.3405 0.226563 14.0122L0.226563 47.6675C0.226563 48.6181 0.583465 49.5297 1.21876 50.2019C1.85405 50.874 2.71569 51.2516 3.61412 51.2516H44.2648C45.1633 51.2516 46.0249 50.874 46.6602 50.2019C47.2955 49.5297 47.6524 48.6181 47.6524 47.6675V3.63348C47.6524 2.6829 47.2955 1.77126 46.6602 1.09909C46.0249 0.426933 45.1633 0.0493164 44.2648 0.0493164H14.3527C15.0133 1.16004 15.5156 2.36774 15.8432 3.63348Z" fill="#C2C0C0"/>
</svg>
